<?xml version="1.0" standalone="no"?>
<svg version="1.0" xmlns="http://www.w3.org/2000/svg"
 width="24" height="24" viewBox="0 0 512.000000 512.000000"
 preserveAspectRatio="xMidYMid meet">

<g transform="translate(0.000000,512.000000) scale(0.100000,-0.100000)"
fill="#000000" stroke="none">
<path d="M1823 5101 c-67 -23 -118 -62 -154 -119 -41 -65 -49 -101 -49 -234
l0 -117 -412 -3 -413 -3 -60 -28 c-111 -52 -182 -143 -204 -262 -6 -32 -11
-128 -11 -212 0 -150 1 -155 25 -178 23 -24 30 -25 145 -25 l120 0 0 -140 0
-140 -232 -2 -232 -3 -13 -25 c-10 -19 -13 -130 -13 -463 l0 -438 25 -24 24
-25 221 0 220 0 2 -1072 c0 -590 0 -1081 0 -1092 -3 -22 38 -138 72 -205 14
-27 51 -77 82 -110 l56 -61 -382 0 c-378 0 -411 -3 -432 -34 -13 -19 -9 -45
12 -66 20 -20 33 -20 2340 -20 2307 0 2320 0 2340 20 27 27 25 55 -6 79 -26
20 -37 21 -412 21 l-386 0 43 43 c64 62 117 148 146 238 14 44 25 85 24 92 -1
7 -1 497 0 1090 l1 1077 220 0 221 0 24 25 25 24 0 438 c0 333 -3 444 -13 463
l-13 25 -232 3 -232 2 0 140 0 140 120 0 c115 0 122 1 145 25 24 23 25 28 25
178 0 228 -18 301 -98 389 -47 52 -95 82 -162 102 -45 13 -117 16 -446 16
l-392 0 -4 133 c-3 121 -5 137 -32 190 -19 39 -44 71 -78 97 -90 72 -71 70
-832 70 -627 -1 -685 -2 -733 -19z m1484 -137 c62 -50 73 -82 73 -216 l0 -118
-820 0 -820 0 0 120 c0 85 4 129 14 148 18 35 64 78 96 91 16 6 274 9 722 8
l696 -2 39 -31z m1059 -489 c30 -19 60 -49 79 -79 29 -48 30 -52 33 -203 l4
-153 -1921 0 -1921 0 0 138 c1 192 28 254 132 306 l52 26 1746 -2 1747 -3 49
-30z m-176 -705 l0 -150 -1630 0 -1630 0 0 150 0 150 1630 0 1630 0 0 -150z
m-3380 -615 l0 -375 -185 0 -185 0 0 375 0 375 185 0 185 0 0 -375z m3870 0
l0 -375 -185 0 -185 0 0 375 0 375 185 0 185 0 0 -375z m-490 -1130 l0 -1485
-1630 0 -1630 0 0 1485 0 1485 1630 0 1630 0 0 -1485z m-37 -1644 c-36 -93
-139 -191 -243 -234 l-55 -22 -1277 -3 c-1266 -2 -1278 -2 -1339 18 -75 26
-128 59 -184 115 -40 39 -95 129 -95 155 0 7 507 10 1604 10 l1604 0 -15 -39z"/>
<path d="M1480 3251 c-90 -29 -165 -96 -204 -180 -21 -46 -21 -50 -24 -1006
-3 -700 0 -978 8 -1028 35 -203 250 -313 435 -222 63 30 109 79 142 151 l23
51 -2 1014 -3 1014 -25 48 c-28 56 -80 107 -142 138 -46 24 -163 35 -208 20z
m167 -132 c30 -15 52 -35 71 -67 l27 -47 3 -963 c2 -656 -1 -976 -8 -1003 -13
-48 -64 -107 -107 -125 -73 -31 -176 -5 -220 54 -44 60 -44 61 -41 1077 l3
970 23 37 c51 82 158 111 249 67z"/>
<path d="M2480 3251 c-96 -31 -177 -107 -207 -194 -17 -49 -18 -113 -18 -1037
0 -1108 -4 -1042 76 -1134 120 -137 338 -137 458 0 80 92 76 26 76 1134 0
1110 5 1042 -77 1135 -57 65 -125 97 -213 101 -38 2 -81 0 -95 -5z m172 -134
c43 -26 71 -60 86 -106 9 -25 12 -292 12 -995 0 -914 -1 -963 -19 -1001 -72
-155 -270 -155 -342 0 -18 38 -19 87 -19 1001 0 703 3 970 12 995 27 81 94
129 178 129 39 0 65 -6 92 -23z"/>
<path d="M3469 3247 c-57 -22 -106 -55 -143 -99 -69 -81 -66 -23 -66 -1133 l0
-1002 30 -61 c56 -111 145 -166 270 -167 93 0 169 33 229 101 80 92 76 24 76
1144 l0 995 -21 46 c-30 64 -88 126 -148 156 -62 31 -171 41 -227 20z m187
-132 c23 -14 53 -42 66 -62 l23 -38 3 -970 c3 -1016 3 -1017 -41 -1077 -44
-59 -147 -85 -220 -54 -43 18 -94 77 -107 125 -7 27 -10 347 -8 1003 l3 963
23 41 c53 91 167 122 258 69z"/>
</g>
</svg>
