<svg width="617" height="220" viewBox="0 0 617 220" fill="none" xmlns="http://www.w3.org/2000/svg">
<path d="M247 217.967C247.383 216.48 247.805 214.968 248.248 213.457C259.263 172.812 284.392 191.599 284.392 191.599C296.976 169.285 302.08 189.629 302.08 189.629C309.551 156.063 335.617 185.289 335.617 185.289C355.551 143.972 391.956 178.115 391.956 178.115C389.721 149.539 409.413 155.849 409.413 155.849C412.635 126.337 434.683 139.965 434.683 139.965C459.873 66.7861 507.212 155.345 507.212 155.345C550.946 148.483 556.463 174.324 558.738 191.503C608.091 191.023 615.48 207.194 614.977 217.967H247Z" fill="#365644" stroke="#224038" stroke-width="3.19306"/>
<mask id="path-2-inside-1_1066_1267" fill="white">
<path fill-rule="evenodd" clip-rule="evenodd" d="M200.962 4.84355C202.641 1.85204 205.804 0 209.234 0H411.519C416.758 0 421.005 4.24716 421.005 9.4863V27.5828C421.005 29.3935 420.499 31.0814 419.623 32.5166C420.825 34.1627 421.502 36.2132 421.418 38.4183L420.717 56.9539C420.649 58.7335 420.096 60.3846 419.189 61.7833C420.331 63.3497 421.005 65.2793 421.005 67.3663V85.9084C421.005 86.3935 420.968 86.8701 420.898 87.3356C421.598 88.5836 422.028 90.0051 422.106 91.5234L423.099 111.075C423.263 114.319 421.778 117.243 419.378 119.045L419.725 122.79C420.106 126.897 417.795 130.753 414.006 132.332L402.83 136.991C401.568 137.517 400.204 137.762 398.832 137.708L205.893 130.163C199.676 129.92 195.31 123.859 197.066 117.909L201.154 104.06C201.327 103.474 201.553 102.915 201.827 102.388L201.699 99.873C201.611 98.138 201.995 96.4943 202.739 95.0648C198.707 93.9715 195.741 90.2863 195.741 85.9084V67.3663C195.741 62.3622 199.616 58.263 204.529 57.9054C202.667 56.1159 201.551 53.5676 201.657 50.7707L202.358 32.2351C202.423 30.5127 202.944 28.9106 203.8 27.5413C196.855 27.0975 192.716 19.5362 196.142 13.4321L200.962 4.84355Z"/>
</mask>
<path fill-rule="evenodd" clip-rule="evenodd" d="M200.962 4.84355C202.641 1.85204 205.804 0 209.234 0H411.519C416.758 0 421.005 4.24716 421.005 9.4863V27.5828C421.005 29.3935 420.499 31.0814 419.623 32.5166C420.825 34.1627 421.502 36.2132 421.418 38.4183L420.717 56.9539C420.649 58.7335 420.096 60.3846 419.189 61.7833C420.331 63.3497 421.005 65.2793 421.005 67.3663V85.9084C421.005 86.3935 420.968 86.8701 420.898 87.3356C421.598 88.5836 422.028 90.0051 422.106 91.5234L423.099 111.075C423.263 114.319 421.778 117.243 419.378 119.045L419.725 122.79C420.106 126.897 417.795 130.753 414.006 132.332L402.83 136.991C401.568 137.517 400.204 137.762 398.832 137.708L205.893 130.163C199.676 129.92 195.31 123.859 197.066 117.909L201.154 104.06C201.327 103.474 201.553 102.915 201.827 102.388L201.699 99.873C201.611 98.138 201.995 96.4943 202.739 95.0648C198.707 93.9715 195.741 90.2863 195.741 85.9084V67.3663C195.741 62.3622 199.616 58.263 204.529 57.9054C202.667 56.1159 201.551 53.5676 201.657 50.7707L202.358 32.2351C202.423 30.5127 202.944 28.9106 203.8 27.5413C196.855 27.0975 192.716 19.5362 196.142 13.4321L200.962 4.84355Z" fill="#0082CB"/>
<path d="M200.962 4.84355L197.86 3.10253L200.962 4.84355ZM419.623 32.5166L416.586 30.6635L415.347 32.694L416.75 34.6149L419.623 32.5166ZM421.418 38.4183L424.973 38.5529V38.5528L421.418 38.4183ZM420.717 56.9539L424.272 57.0885V57.0885L420.717 56.9539ZM419.189 61.7833L416.204 59.8476L414.872 61.9013L416.314 63.8791L419.189 61.7833ZM420.898 87.3356L417.381 86.8049L417.199 88.0115L417.796 89.0757L420.898 87.3356ZM422.106 91.5234L418.553 91.7039V91.7039L422.106 91.5234ZM423.099 111.075L419.546 111.256L423.099 111.075ZM419.378 119.045L417.242 116.2L415.652 117.394L415.836 119.374L419.378 119.045ZM419.725 122.79L423.267 122.462L419.725 122.79ZM414.006 132.332L415.375 135.616L414.006 132.332ZM402.83 136.991L401.461 133.708L401.461 133.708L402.83 136.991ZM398.832 137.708L398.693 141.263H398.693L398.832 137.708ZM205.893 130.163L205.754 133.718H205.754L205.893 130.163ZM197.066 117.909L200.478 118.916L197.066 117.909ZM201.154 104.06L204.566 105.067H204.566L201.154 104.06ZM201.827 102.388L204.984 104.028L205.429 103.171L205.38 102.208L201.827 102.388ZM201.699 99.873L198.146 100.053L201.699 99.873ZM202.739 95.0648L205.895 96.7066L207.933 92.7876L203.67 91.6315L202.739 95.0648ZM204.529 57.9054L204.787 61.4534L212.75 60.8737L206.994 55.3408L204.529 57.9054ZM201.657 50.7707L205.212 50.9052L201.657 50.7707ZM202.358 32.2351L198.803 32.1006L202.358 32.2351ZM203.8 27.5413L206.816 29.4267L209.976 24.3714L204.027 23.9912L203.8 27.5413ZM196.142 13.4321L193.039 11.6911H193.039L196.142 13.4321ZM209.234 -3.55736C204.517 -3.55736 200.168 -1.0108 197.86 3.10253L204.064 6.58458C205.113 4.71489 207.09 3.55736 209.234 3.55736V-3.55736ZM411.519 -3.55736H209.234V3.55736H411.519V-3.55736ZM424.562 9.4863C424.562 2.28248 418.722 -3.55736 411.519 -3.55736V3.55736C414.793 3.55736 417.448 6.21184 417.448 9.4863H424.562ZM424.562 27.5828V9.4863H417.448V27.5828H424.562ZM422.66 34.3698C423.866 32.3924 424.562 30.0657 424.562 27.5828H417.448C417.448 28.7212 417.131 29.7704 416.586 30.6635L422.66 34.3698ZM424.973 38.5528C425.088 35.5239 424.156 32.691 422.496 30.4184L416.75 34.6149C417.495 35.6343 417.916 36.9025 417.863 38.2838L424.973 38.5528ZM424.272 57.0885L424.973 38.5529L417.863 38.2838L417.162 56.8194L424.272 57.0885ZM422.173 63.7189C423.418 61.7997 424.179 59.5292 424.272 57.0885L417.162 56.8194C417.12 57.9377 416.774 58.9696 416.204 59.8476L422.173 63.7189ZM424.562 67.3663C424.562 64.5011 423.634 61.8421 422.063 59.6874L416.314 63.8791C417.028 64.8574 417.448 66.0576 417.448 67.3663H424.562ZM424.562 85.9084V67.3663H417.448V85.9084H424.562ZM424.416 87.8664C424.512 87.2258 424.562 86.5718 424.562 85.9084H417.448C417.448 86.2152 417.424 86.5144 417.381 86.8049L424.416 87.8664ZM425.658 91.343C425.553 89.2619 424.962 87.3084 424.001 85.5955L417.796 89.0757C418.235 89.8588 418.504 90.7482 418.553 91.7039L425.658 91.343ZM426.651 110.895L425.658 91.343L418.553 91.7039L419.546 111.256L426.651 110.895ZM421.514 121.89C424.826 119.403 426.878 115.361 426.651 110.895L419.546 111.256C419.648 113.277 418.73 115.083 417.242 116.2L421.514 121.89ZM415.836 119.374L416.183 123.119L423.267 122.462L422.92 118.717L415.836 119.374ZM416.183 123.119C416.421 125.687 414.98 128.072 412.638 129.049L415.375 135.616C420.61 133.434 423.79 128.108 423.267 122.462L416.183 123.119ZM412.638 129.049L401.461 133.708L404.198 140.275L415.375 135.616L412.638 129.049ZM401.461 133.708C400.678 134.034 399.829 134.187 398.971 134.154L398.693 141.263C400.579 141.337 402.457 141 404.198 140.275L401.461 133.708ZM398.971 134.154L206.032 126.609L205.754 133.718L398.693 141.263L398.971 134.154ZM206.032 126.609C202.117 126.456 199.382 122.628 200.478 118.916L193.654 116.902C191.238 125.09 197.234 133.385 205.754 133.718L206.032 126.609ZM200.478 118.916L204.566 105.067L197.742 103.053L193.654 116.902L200.478 118.916ZM204.566 105.067C204.674 104.701 204.815 104.354 204.984 104.028L198.67 100.749C198.292 101.476 197.98 102.247 197.742 103.053L204.566 105.067ZM198.146 100.053L198.274 102.569L205.38 102.208L205.252 99.6926L198.146 100.053ZM199.583 93.4231C198.553 95.402 198.025 97.6734 198.146 100.053L205.252 99.6926C205.197 98.6026 205.437 97.5866 205.895 96.7066L199.583 93.4231ZM192.184 85.9084C192.184 91.933 196.265 96.9952 201.808 98.4982L203.67 91.6315C201.148 90.9478 199.299 88.6395 199.299 85.9084H192.184ZM192.184 67.3663V85.9084H199.299V67.3663H192.184ZM204.271 54.3574C197.512 54.8494 192.184 60.4841 192.184 67.3663H199.299C199.299 64.2403 201.72 61.6766 204.787 61.4534L204.271 54.3574ZM198.102 50.6362C197.956 54.4837 199.497 58.0031 202.064 60.47L206.994 55.3408C205.837 54.2286 205.145 52.6516 205.212 50.9052L198.102 50.6362ZM198.803 32.1006L198.102 50.6362L205.212 50.9052L205.913 32.3696L198.803 32.1006ZM200.783 25.6559C199.608 27.5355 198.893 29.7385 198.803 32.1006L205.913 32.3696C205.954 31.2869 206.28 30.2858 206.816 29.4267L200.783 25.6559ZM193.039 11.6911C188.328 20.0855 194.021 30.481 203.573 31.0914L204.027 23.9912C199.69 23.7141 197.103 18.987 199.244 15.1731L193.039 11.6911ZM197.86 3.10253L193.039 11.6911L199.244 15.1731L204.064 6.58458L197.86 3.10253Z" fill="#00A3FF" mask="url(#path-2-inside-1_1066_1267)"/>
<path d="M326.086 64.7657C329.991 65.4392 332.892 68.7509 333.047 72.7097L337.683 191.315C337.86 195.825 334.439 199.667 329.939 200.013L313.903 201.246C309.344 201.597 305.343 198.234 304.904 193.682L292.96 69.8164C292.429 64.3046 297.286 59.7974 302.743 60.7387L326.086 64.7657Z" fill="#006AA6" stroke="#00A3FF" stroke-width="3.8742"/>
<path d="M310.573 67.1524C314.477 67.8259 317.379 71.1376 317.533 75.0965L322.139 192.909C322.325 197.67 318.516 201.631 313.751 201.631L273.408 201.631C268.498 201.631 264.636 197.434 265.043 192.541L275.214 70.3179C275.623 65.4084 280.151 61.9046 285.006 62.7421L310.573 67.1524Z" fill="#0082CB" stroke="#00A3FF" stroke-width="3.8742"/>
<path d="M272.325 126.388H317.672L318.481 149.061H270.535L272.325 126.388Z" fill="#006AA6"/>
<path d="M322.352 149.061L321.551 136.531L333.775 136.844L334.081 149.061H322.352Z" fill="#005A8D"/>
<mask id="path-8-inside-2_1066_1267" fill="white">
<path fill-rule="evenodd" clip-rule="evenodd" d="M195.566 18.8001C195.566 13.561 199.813 9.31384 205.052 9.31384H397.442C402.681 9.31384 406.928 13.561 406.928 18.8001V35.7331C406.928 39.0081 405.268 41.8955 402.744 43.6002C406.322 45.0358 408.78 48.5935 408.628 52.6808L408 69.6077C407.946 71.0788 407.559 72.462 406.915 73.6872C406.924 73.8558 406.928 74.0256 406.928 74.1964V91.1294C406.928 92.0167 406.806 92.8755 406.578 93.69C407.424 95.0343 407.946 96.6047 408.03 98.2956L408.591 109.565C408.782 110.335 408.878 111.142 408.868 111.971L408.838 114.521L408.873 115.218C408.901 115.786 408.879 116.344 408.81 116.888L408.666 128.912C408.603 134.151 404.306 138.3 399.069 138.179L203.031 133.653C197.793 133.532 193.598 129.187 193.661 123.949L193.725 118.587L193.128 106.6C192.937 102.763 195.055 99.3703 198.262 97.7539C196.594 96.0442 195.566 93.7068 195.566 91.1294V74.1964C195.566 73.0101 195.784 71.8746 196.181 70.8278C194.141 69.0285 192.897 66.3603 193.007 63.4175L193.635 46.4907C193.73 43.923 194.837 41.6232 196.559 39.9639C195.923 38.6902 195.566 37.2534 195.566 35.7331V18.8001Z"/>
</mask>
<path fill-rule="evenodd" clip-rule="evenodd" d="M195.566 18.8001C195.566 13.561 199.813 9.31384 205.052 9.31384H397.442C402.681 9.31384 406.928 13.561 406.928 18.8001V35.7331C406.928 39.0081 405.268 41.8955 402.744 43.6002C406.322 45.0358 408.78 48.5935 408.628 52.6808L408 69.6077C407.946 71.0788 407.559 72.462 406.915 73.6872C406.924 73.8558 406.928 74.0256 406.928 74.1964V91.1294C406.928 92.0167 406.806 92.8755 406.578 93.69C407.424 95.0343 407.946 96.6047 408.03 98.2956L408.591 109.565C408.782 110.335 408.878 111.142 408.868 111.971L408.838 114.521L408.873 115.218C408.901 115.786 408.879 116.344 408.81 116.888L408.666 128.912C408.603 134.151 404.306 138.3 399.069 138.179L203.031 133.653C197.793 133.532 193.598 129.187 193.661 123.949L193.725 118.587L193.128 106.6C192.937 102.763 195.055 99.3703 198.262 97.7539C196.594 96.0442 195.566 93.7068 195.566 91.1294V74.1964C195.566 73.0101 195.784 71.8746 196.181 70.8278C194.141 69.0285 192.897 66.3603 193.007 63.4175L193.635 46.4907C193.73 43.923 194.837 41.6232 196.559 39.9639C195.923 38.6902 195.566 37.2534 195.566 35.7331V18.8001Z" fill="#BDE7FF"/>
<path d="M402.744 43.6002L400.753 40.6521L395.197 44.4046L401.42 46.9016L402.744 43.6002ZM408.628 52.6808L405.074 52.5489V52.5489L408.628 52.6808ZM408 69.6077L411.555 69.7396L408 69.6077ZM406.915 73.6872L403.766 72.0315L403.311 72.8977L403.362 73.875L406.915 73.6872ZM406.578 93.69L403.153 92.7319L402.728 94.2493L403.567 95.5832L406.578 93.69ZM408.03 98.2956L404.477 98.4725L408.03 98.2956ZM408.591 109.565L405.038 109.741L405.055 110.085L405.138 110.418L408.591 109.565ZM408.868 111.971L412.425 112.013V112.013L408.868 111.971ZM408.838 114.521L405.281 114.478L405.279 114.588L405.285 114.697L408.838 114.521ZM408.873 115.218L405.32 115.394L405.32 115.394L408.873 115.218ZM408.81 116.888L405.28 116.441L405.255 116.643L405.252 116.846L408.81 116.888ZM408.666 128.912L412.223 128.955L408.666 128.912ZM399.069 138.179L399.151 134.623L399.069 138.179ZM203.031 133.653L203.113 130.097H203.113L203.031 133.653ZM193.661 123.949L190.104 123.906L193.661 123.949ZM193.725 118.587L197.282 118.629L197.283 118.52L197.278 118.41L193.725 118.587ZM193.128 106.6L189.575 106.777L193.128 106.6ZM198.262 97.7539L199.863 100.931L204.199 98.7452L200.808 95.2695L198.262 97.7539ZM196.181 70.8278L199.507 72.0913L200.381 69.789L198.534 68.1599L196.181 70.8278ZM193.007 63.4175L189.452 63.2856L193.007 63.4175ZM193.635 46.4907L190.08 46.3588L193.635 46.4907ZM196.559 39.9639L199.028 42.5253L200.909 40.7125L199.742 38.3752L196.559 39.9639ZM205.052 5.75648C197.848 5.75648 192.008 11.5963 192.008 18.8001H199.123C199.123 15.5257 201.778 12.8712 205.052 12.8712V5.75648ZM397.442 5.75648H205.052V12.8712H397.442V5.75648ZM410.485 18.8001C410.485 11.5963 404.646 5.75648 397.442 5.75648V12.8712C400.716 12.8712 403.371 15.5257 403.371 18.8001H410.485ZM410.485 35.7331V18.8001H403.371V35.7331H410.485ZM404.735 46.5482C408.197 44.2104 410.485 40.2396 410.485 35.7331H403.371C403.371 37.7767 402.34 39.5807 400.753 40.6521L404.735 46.5482ZM412.183 52.8127C412.392 47.1824 409 42.2774 404.069 40.2987L401.42 46.9016C403.643 47.7941 405.168 50.0045 405.074 52.5489L412.183 52.8127ZM411.555 69.7396L412.183 52.8127L405.074 52.5489L404.445 69.4758L411.555 69.7396ZM410.063 75.343C410.949 73.6583 411.481 71.7557 411.555 69.7396L404.445 69.4758C404.411 70.4019 404.169 71.2657 403.766 72.0315L410.063 75.343ZM410.485 74.1964C410.485 73.9629 410.479 73.7305 410.467 73.4995L403.362 73.875C403.368 73.9811 403.371 74.0883 403.371 74.1964H410.485ZM410.485 91.1294V74.1964H403.371V91.1294H410.485ZM410.004 94.6481C410.319 93.5247 410.485 92.3436 410.485 91.1294H403.371C403.371 91.6897 403.294 92.2262 403.153 92.7319L410.004 94.6481ZM411.583 98.1187C411.467 95.8 410.75 93.6413 409.59 91.7968L403.567 95.5832C404.097 96.4273 404.424 97.4093 404.477 98.4725L411.583 98.1187ZM412.144 109.388L411.583 98.1187L404.477 98.4725L405.038 109.741L412.144 109.388ZM405.138 110.418C405.257 110.899 405.318 111.405 405.311 111.928L412.425 112.013C412.439 110.879 412.307 109.772 412.045 108.711L405.138 110.418ZM405.311 111.928L405.281 114.478L412.395 114.563L412.425 112.013L405.311 111.928ZM412.426 115.041L412.391 114.344L405.285 114.697L405.32 115.394L412.426 115.041ZM412.339 117.336C412.434 116.585 412.464 115.818 412.426 115.041L405.32 115.394C405.338 115.754 405.323 116.103 405.28 116.441L412.339 117.336ZM405.252 116.846L405.109 128.87L412.223 128.955L412.367 116.931L405.252 116.846ZM405.109 128.87C405.07 132.129 402.409 134.698 399.151 134.623L398.987 141.735C406.204 141.902 412.137 136.174 412.223 128.955L405.109 128.87ZM399.151 134.623L203.113 130.097L202.949 137.21L398.987 141.735L399.151 134.623ZM203.113 130.097C199.824 130.021 197.179 127.281 197.218 123.991L190.104 123.906C190.018 131.094 195.763 137.044 202.949 137.21L203.113 130.097ZM197.218 123.991L197.282 118.629L190.168 118.544L190.104 123.906L197.218 123.991ZM189.575 106.777L190.172 118.764L197.278 118.41L196.681 106.423L189.575 106.777ZM196.661 94.5772C192.236 96.807 189.312 101.49 189.575 106.777L196.681 106.423C196.562 104.035 197.873 101.934 199.863 100.931L196.661 94.5772ZM192.008 91.1294C192.008 94.6721 193.425 97.891 195.716 100.238L200.808 95.2695C199.762 94.1974 199.123 92.7416 199.123 91.1294H192.008ZM192.008 74.1964V91.1294H199.123V74.1964H192.008ZM192.856 69.5643C192.307 71.0085 192.008 72.5717 192.008 74.1964H199.123C199.123 73.4485 199.26 72.7408 199.507 72.0913L192.856 69.5643ZM189.452 63.2856C189.302 67.3346 191.018 71.0175 193.828 73.4958L198.534 68.1599C197.264 67.0394 196.493 65.3859 196.562 63.5494L189.452 63.2856ZM190.08 46.3588L189.452 63.2856L196.562 63.5494L197.19 46.6226L190.08 46.3588ZM194.091 37.4025C191.736 39.6718 190.211 42.8306 190.08 46.3588L197.19 46.6226C197.249 45.0154 197.939 43.5746 199.028 42.5253L194.091 37.4025ZM192.008 35.7331C192.008 37.8171 192.5 39.7966 193.376 41.5525L199.742 38.3752C199.347 37.5838 199.123 36.6897 199.123 35.7331H192.008ZM192.008 18.8001V35.7331H199.123V18.8001H192.008Z" fill="#00A3FF" mask="url(#path-8-inside-2_1066_1267)"/>
<path d="M210.213 43.7998L385.697 45.2428" stroke="#8ED6FF" stroke-width="3.55736" stroke-linecap="round"/>
<path d="M210.213 102.185L385.709 100.026" stroke="#8ED6FF" stroke-width="3.55736" stroke-linecap="round"/>
<path d="M367.572 74.7416H349.25V72.0725H368.069L367.572 74.7416ZM351.648 67.0283C351.648 64.4949 354 62.7985 358.569 62.7985C363.071 62.7985 365.491 64.4949 365.491 67.0283C365.491 69.4486 363.071 71.1451 358.569 71.1451C354 71.1451 351.648 69.4486 351.648 67.0283ZM354.973 66.9831C354.973 68.0914 356.307 68.7022 358.569 68.7022C360.854 68.7022 362.166 68.0914 362.166 66.9831C362.166 65.8973 360.854 65.2866 358.569 65.2866C356.307 65.2866 354.973 65.8973 354.973 66.9831ZM351.082 75.9631H363.161C365.898 75.9631 366.961 76.3702 366.735 79.356L366.463 83.518H354.045C351.67 83.518 350.517 82.2965 350.743 79.7405L351.082 75.9631ZM363.546 80.9846L363.636 79.4012C363.681 78.5417 363.432 78.4286 362.55 78.4286H354.023L353.887 79.7858C353.797 80.6001 354.023 80.9846 354.95 80.9846H363.546Z" fill="#0082CB"/>
<path d="M328.566 68.6569C328.566 65.4449 330.738 63.2282 334.425 63.2282C337.501 63.2282 339.582 64.8568 340.125 67.2997H343.541V62.821H346.481V73.7237H343.541V69.9236H340.148C339.605 72.3439 337.524 73.9725 334.425 73.9725C330.738 73.9725 328.566 71.7784 328.566 68.6569ZM342.364 74.6511H345.033V75.6237C345.033 76.5285 344.898 77.4785 344.626 78.4059L348.268 81.4822L346.526 83.6084L343.541 80.7584C342.591 82.1155 341.166 83.1787 339.13 83.5632H334.38C331.665 83.5632 330.557 82.9525 330.806 79.6048L331.168 74.6511H334.018L333.859 76.3928H336.37V74.6511H339.13V80.9393C341.437 80.125 342.364 78.3381 342.364 75.6463V74.6511ZM331.665 68.6569C331.665 70.5343 332.683 71.4617 334.47 71.4617C336.302 71.4617 337.298 70.5343 337.298 68.6569C337.298 66.8473 336.302 65.8747 334.47 65.8747C332.683 65.8747 331.665 66.8473 331.665 68.6569ZM334.719 80.7584L336.37 80.781V78.8131H333.656L333.611 79.356C333.497 80.6679 333.678 80.7584 334.719 80.7584Z" fill="#0082CB"/>
<path d="M321.075 70.2176L320.69 72.7963H318.179V83.1334H315.261V78.4512H301.373V76.0309H304.585V69.6748H307.548V76.0309H315.261V62.821H318.179V70.2176H321.075ZM311.846 74.3796L309.041 73.7011C310.217 71.2808 310.602 68.0235 310.195 66.1461H302.142V63.4996H312.909C313.678 66.508 313.52 70.8736 311.846 74.3796Z" fill="#0082CB"/>
<path d="M296.003 71.2355H291.524V68.8831H296.026V67.345H291.456C290.235 70.6927 287.068 72.8189 282.296 73.6784L281.232 71.2355C285.44 70.5117 288.606 68.8379 288.81 65.6711H282.363V63.1151H291.977C292.022 63.7484 291.999 64.3592 291.954 64.9473H296.026V62.821H298.944V70.5796C298.944 71.8689 298.808 73.3844 297.632 74.2892C298.695 74.6737 299.125 75.5332 298.921 77.3428L298.649 79.9214H287.181C287.114 80.5774 287.114 81.0524 287.996 81.0524H299.758L299.305 83.6084H287.34C284.603 83.6084 283.766 82.8167 283.969 80.6905L284.241 77.5464H295.822C295.98 76.7547 295.89 76.438 294.691 76.438H284.218V73.9951H292.678C295.46 73.6558 295.935 72.8868 296.003 71.2355Z" fill="#0082CB"/>
<path d="M267.656 69.6522V73.9499H264.806V62.9568H267.656V67.1188H269.262V62.7985H272.135V72.0046C272.135 73.4749 271.999 74.9678 271.027 75.9404C271.931 76.3928 272.293 77.4107 272.044 79.6048L271.592 83.5406H268.425L268.9 79.7858C269.036 78.6095 268.946 78.1345 267.702 78.1345H255.758V75.5559H266.751C269.172 75.1714 269.262 74.0178 269.262 72.0272V69.6522H267.656ZM257.455 63.4544H260.486V64.8568C260.486 65.9426 260.373 67.0283 260.079 68.1141L264.625 71.688L262.703 74.1309L259.106 70.6248C258.314 72.1177 257.093 73.4975 255.351 74.6285L253.451 72.2987C255.826 70.9867 257.455 68.7022 257.455 64.9021V63.4544Z" fill="#0082CB"/>
<path d="M234.85 63.2961H244.327C244.44 64.6306 244.395 65.8521 244.192 66.9378H248.512V62.821H251.43V72.1403C251.43 73.4522 251.272 74.7642 250.276 75.5785C251.136 76.0309 251.43 76.9583 251.43 78.7905V83.3596H239.532C237.27 83.3596 236.275 82.3191 236.456 79.7631L236.75 75.2166H245.345C248.331 74.832 248.512 73.8594 248.512 71.5974V69.5391H243.287C241.862 72.1629 239.057 73.882 234.782 74.7868L233.719 72.3439C238.265 71.507 241.296 69.5164 241.296 65.8521H234.85V63.2961ZM248.421 80.8262V78.8809C248.421 77.8178 248.127 77.6821 247.177 77.6821H239.6L239.464 79.831C239.419 80.5548 239.442 80.8262 240.369 80.8262H248.421Z" fill="#0082CB"/>
<circle cx="210.435" cy="27.6932" r="5.10713" fill="#00A3FF" stroke="#0082CB" stroke-width="1.64362"/>
<circle cx="391.638" cy="27.6932" r="5.10713" fill="#00A3FF" stroke="#0082CB" stroke-width="1.64362"/>
<circle cx="391.232" cy="118.243" r="5.10713" fill="#00A3FF" stroke="#0082CB" stroke-width="1.64362"/>
<circle cx="210.435" cy="116.599" r="5.10713" fill="#00A3FF" stroke="#0082CB" stroke-width="1.64362"/>
<path d="M416.532 3.56116L403.383 13.9707" stroke="#00A3FF" stroke-width="4.38298"/>
<line x1="392.93" y1="23.3198" x2="390.191" y2="32.6336" stroke="#0082CB" stroke-width="2.19149"/>
<line x1="392.93" y1="114.267" x2="390.191" y2="123.58" stroke="#0082CB" stroke-width="2.19149"/>
<line x1="211.584" y1="23.3198" x2="208.845" y2="32.6336" stroke="#0082CB" stroke-width="2.19149"/>
<line x1="211.584" y1="111.527" x2="208.845" y2="120.841" stroke="#0082CB" stroke-width="2.19149"/>
<path d="M367 218.095C366.621 216.62 366.201 215.121 365.762 213.621C354.837 173.308 329.913 191.942 329.913 191.942C317.431 169.81 312.369 189.988 312.369 189.988C304.959 156.695 279.106 185.683 279.106 185.683C259.334 144.704 223.226 178.568 223.226 178.568C225.443 150.225 205.911 156.483 205.911 156.483C202.715 127.212 180.847 140.729 180.847 140.729C155.862 68.1465 108.91 155.984 108.91 155.984C65.5319 149.177 60.0597 174.808 57.803 191.847C8.85309 191.371 1.5236 207.41 2.02289 218.095H367Z" fill="#4D7A60" stroke="#2B5349" stroke-width="3.16703"/>
</svg>
