<svg width="16" height="16" viewBox="0 0 16 16" fill="none" xmlns="http://www.w3.org/2000/svg">
<g clip-path="url(#clip0_1025_7866)">
<g filter="url(#filter0_d_1025_7866)">
<path d="M4.43784 10.4853C2.52072 8.54416 2.52072 5.39697 4.43784 3.45584C6.35496 1.51472 9.46322 1.51472 11.3803 3.45584C13.2975 5.39697 13.2975 8.54416 11.3803 10.4853L7.90909 14L4.43784 10.4853Z" fill="white"/>
<path d="M11.3803 10.4853L12.0918 11.188L12.0918 11.188L11.3803 10.4853ZM4.43784 10.4853L3.72635 11.188L3.72635 11.188L4.43784 10.4853ZM7.90909 14L7.1976 14.7027C7.38548 14.8929 7.64172 15 7.90909 15C8.17646 15 8.4327 14.8929 8.62058 14.7027L7.90909 14ZM5.14933 9.78259C3.61689 8.23096 3.61689 5.71017 5.14933 4.15854L3.72635 2.75315C1.42455 5.08377 1.42455 8.85736 3.72635 11.188L5.14933 9.78259ZM5.14933 4.15854C6.67495 2.61382 9.14324 2.61382 10.6688 4.15854L12.0918 2.75315C9.78321 0.415616 6.03497 0.415616 3.72635 2.75315L5.14933 4.15854ZM10.6688 4.15854C12.2013 5.71017 12.2013 8.23096 10.6688 9.78259L12.0918 11.188C14.3936 8.85736 14.3936 5.08377 12.0918 2.75315L10.6688 4.15854ZM10.6689 9.78259C10.1743 10.2833 9.30653 11.162 8.56235 11.9155C8.19025 12.2922 7.84907 12.6377 7.6009 12.889C7.47682 13.0146 7.37599 13.1167 7.30619 13.1874C7.27129 13.2227 7.24414 13.2502 7.22572 13.2688C7.21651 13.2782 7.20947 13.2853 7.20475 13.2901C7.20238 13.2925 7.2006 13.2943 7.1994 13.2955C7.19881 13.2961 7.19835 13.2966 7.19805 13.2968C7.19793 13.297 7.19776 13.2971 7.19771 13.2972C7.19767 13.2972 7.19765 13.2973 7.19763 13.2973C7.19761 13.2973 7.1976 13.2973 7.90909 14C8.62058 14.7027 8.62059 14.7027 8.62061 14.7027C8.62063 14.7026 8.62066 14.7026 8.6207 14.7026C8.62076 14.7025 8.6209 14.7024 8.62104 14.7022C8.62132 14.7019 8.6218 14.7015 8.62239 14.7009C8.62357 14.6997 8.62538 14.6978 8.62773 14.6955C8.63246 14.6907 8.63949 14.6835 8.6487 14.6742C8.66712 14.6556 8.69427 14.6281 8.72917 14.5927C8.79898 14.5221 8.89981 14.42 9.02389 14.2943C9.27205 14.0431 9.61324 13.6976 9.98533 13.3209C10.7295 12.5674 11.5973 11.6887 12.0918 11.188L10.6689 9.78259ZM7.90909 14C8.62058 13.2973 8.62057 13.2973 8.62055 13.2973C8.62054 13.2973 8.62051 13.2972 8.62047 13.2972C8.62042 13.2971 8.62024 13.297 8.62012 13.2968C8.61982 13.2965 8.61934 13.2961 8.61874 13.2954C8.61753 13.2942 8.61566 13.2923 8.61326 13.2899C8.60842 13.285 8.60122 13.2777 8.5918 13.2682C8.57294 13.2491 8.54517 13.221 8.5095 13.1848C8.43815 13.1126 8.33518 13.0083 8.20872 12.8803C7.9558 12.6242 7.6089 12.273 7.233 11.8923C6.4812 11.1311 5.61339 10.2525 5.14933 9.78259L3.72635 11.188C4.1904 11.6578 5.05822 12.5365 5.81001 13.2977C6.18591 13.6783 6.53281 14.0296 6.78573 14.2857C6.91219 14.4137 7.01516 14.518 7.08651 14.5902C7.12219 14.6263 7.14996 14.6545 7.16881 14.6735C7.17824 14.6831 7.18543 14.6904 7.19027 14.6953C7.19269 14.6977 7.19453 14.6996 7.19575 14.7008C7.19636 14.7014 7.19683 14.7019 7.19713 14.7022C7.19731 14.7024 7.19738 14.7025 7.19748 14.7026C7.19752 14.7026 7.19755 14.7026 7.19757 14.7027C7.19759 14.7027 7.1976 14.7027 7.90909 14ZM10.6689 9.78259L7.1976 13.2973L8.62058 14.7027L12.0918 11.188L10.6689 9.78259ZM8.62058 13.2973L5.14933 9.78259L3.72635 11.188L7.1976 14.7027L8.62058 13.2973Z" fill="white"/>
<circle cx="7.89671" cy="6.89573" r="3.06468" fill="white" stroke="white" stroke-width="2"/>
<path d="M4.43784 10.4853C2.52072 8.54416 2.52072 5.39697 4.43784 3.45584C6.35496 1.51472 9.46322 1.51472 11.3803 3.45584C13.2975 5.39697 13.2975 8.54416 11.3803 10.4853L7.90909 14L4.43784 10.4853Z" fill="url(#paint0_linear_1025_7866)"/>
<path d="M11.3803 10.4853L11.5931 10.6954L11.5931 10.6954L11.3803 10.4853ZM4.43784 10.4853L4.22511 10.6954L4.22511 10.6954L4.43784 10.4853ZM7.90909 14L7.69636 14.2101C7.75253 14.267 7.82915 14.299 7.90909 14.299C7.98903 14.299 8.06565 14.267 8.12182 14.2101L7.90909 14ZM4.65057 10.2752C2.84847 8.45051 2.84847 5.49061 4.65057 3.66594L4.22511 3.24574C2.19297 5.30333 2.19297 8.6378 4.22511 10.6954L4.65057 10.2752ZM4.65057 3.66594C6.45063 1.84334 9.36755 1.84334 11.1676 3.66594L11.5931 3.24574C9.5589 1.18609 6.25928 1.18609 4.22511 3.24574L4.65057 3.66594ZM11.1676 3.66594C12.9697 5.49061 12.9697 8.45051 11.1676 10.2752L11.5931 10.6954C13.6252 8.6378 13.6252 5.30333 11.5931 3.24574L11.1676 3.66594ZM11.1676 10.2752C10.6731 10.7759 9.8053 11.6546 9.06111 12.4081C8.68901 12.7848 8.34783 13.1303 8.09966 13.3815C7.97558 13.5072 7.87475 13.6093 7.80495 13.6799C7.77005 13.7153 7.7429 13.7428 7.72448 13.7614C7.71527 13.7708 7.70824 13.7779 7.70351 13.7827C7.70115 13.7851 7.69936 13.7869 7.69816 13.7881C7.69757 13.7887 7.69711 13.7891 7.69681 13.7894C7.69668 13.7896 7.69653 13.7897 7.69647 13.7898C7.69644 13.7898 7.69641 13.7899 7.69639 13.7899C7.69637 13.7899 7.69636 13.7899 7.90909 14C8.12182 14.2101 8.12183 14.2101 8.12185 14.2101C8.12187 14.2101 8.1219 14.21 8.12194 14.21C8.12199 14.2099 8.12215 14.2098 8.12227 14.2096C8.12255 14.2094 8.12305 14.2089 8.12363 14.2083C8.12481 14.2071 8.12662 14.2052 8.12897 14.2029C8.13371 14.1981 8.14072 14.191 8.14994 14.1816C8.16836 14.163 8.19551 14.1355 8.23041 14.1002C8.30022 14.0295 8.40104 13.9274 8.52513 13.8017C8.77329 13.5505 9.11448 13.205 9.48657 12.8283C10.2308 12.0748 11.0986 11.1961 11.5931 10.6954L11.1676 10.2752ZM7.90909 14C8.12182 13.7899 8.12181 13.7899 8.12179 13.7899C8.12177 13.7899 8.12174 13.7898 8.12171 13.7898C8.12167 13.7897 8.12162 13.7897 8.12156 13.7896C8.1215 13.7896 8.12144 13.7895 8.12136 13.7894C8.12105 13.7891 8.12058 13.7886 8.11998 13.788C8.11875 13.7868 8.11692 13.7849 8.1145 13.7825C8.10967 13.7776 8.10245 13.7703 8.09304 13.7608C8.07418 13.7417 8.04641 13.7135 8.01073 13.6774C7.93938 13.6052 7.83641 13.5009 7.70996 13.3729C7.45703 13.1168 7.11014 12.7655 6.73424 12.3849C5.98244 11.6237 5.11463 10.745 4.65057 10.2752L4.22511 10.6954C4.68916 11.1652 5.55698 12.0439 6.30878 12.8051C6.68468 13.1857 7.03157 13.537 7.28449 13.7931C7.41095 13.9211 7.51392 14.0254 7.58527 14.0976C7.62095 14.1337 7.64872 14.1619 7.66757 14.181C7.677 14.1905 7.68419 14.1978 7.68904 14.2027C7.69145 14.2051 7.69329 14.207 7.69451 14.2082C7.69509 14.2088 7.69562 14.2094 7.6959 14.2096C7.69617 14.2099 7.69605 14.2098 7.69624 14.21C7.69628 14.21 7.69631 14.2101 7.69633 14.2101C7.69635 14.2101 7.69636 14.2101 7.90909 14ZM11.1676 10.2752L7.69636 13.7899L8.12182 14.2101L11.5931 10.6954L11.1676 10.2752ZM8.12182 13.7899L4.65057 10.2752L4.22511 10.6954L7.69636 14.2101L8.12182 13.7899Z" fill="#06A5F6"/>
<circle cx="7.89671" cy="6.89573" r="3.06468" fill="white" stroke="#06A5F6" stroke-width="0.597986"/>
</g>
</g>
<defs>
<filter id="filter0_d_1025_7866" x="0" y="-1" width="15.8164" height="18" filterUnits="userSpaceOnUse" color-interpolation-filters="sRGB">
<feFlood flood-opacity="0" result="BackgroundImageFix"/>
<feColorMatrix in="SourceAlpha" type="matrix" values="0 0 0 0 0 0 0 0 0 0 0 0 0 0 0 0 0 0 127 0" result="hardAlpha"/>
<feOffset/>
<feGaussianBlur stdDeviation="1"/>
<feComposite in2="hardAlpha" operator="out"/>
<feColorMatrix type="matrix" values="0 0 0 0 0 0 0 0 0 0 0 0 0 0 0 0 0 0 0.25 0"/>
<feBlend mode="normal" in2="BackgroundImageFix" result="effect1_dropShadow_1025_7866"/>
<feBlend mode="normal" in="SourceGraphic" in2="effect1_dropShadow_1025_7866" result="shape"/>
</filter>
<linearGradient id="paint0_linear_1025_7866" x1="7.90909" y1="2" x2="7.90909" y2="14" gradientUnits="userSpaceOnUse">
<stop stop-color="#6FC654"/>
<stop offset="1" stop-color="#0BA6EE"/>
</linearGradient>
<clipPath id="clip0_1025_7866">
<rect width="16" height="16" fill="white"/>
</clipPath>
</defs>
</svg>
